<?xml version="1.0" encoding="UTF-8"?>
<svg width="152px" height="282px" viewBox="0 0 152 282" version="1.1" xmlns="http://www.w3.org/2000/svg" xmlns:xlink="http://www.w3.org/1999/xlink">
    <title>grass_left</title>
    <g id="页面-1" stroke="none" stroke-width="1" fill="none" fill-rule="evenodd">
        <g id="grass_left" transform="translate(0.000128, 0.000000)" fill="#3BC117">
            <path d="M58.111,4.06104668 C52.415,13.9680467 50.828,22.6900467 53.351,30.2260467 C55.872,37.7620467 61.141,43.1930467 69.158,46.5190467 C74.622,41.2790467 76.628,33.5410467 75.175,23.3020467 C73.977,14.8490467 68.288,8.43504668 58.111,4.06204668 L58.111,4.06104668 Z M89.104,29.3200467 C87.846,19.3840467 89.604,11.9930467 94.381,7.14704668 C99.156,2.30204668 104.735,-0.0799533233 111.116,0.00204667669 C112.323,8.02204668 110.924,15.0620467 106.919,21.1230467 C103.616,26.0380467 97.677,28.7700467 89.103,29.3200467 L89.104,29.3200467 Z M72.686,50.0640467 C79.673,41.9370467 88.366,38.5090467 98.766,39.7790467 C107.28,40.9310467 113.546,45.3680467 117.566,53.0910467 C111.292,59.8480467 103.813,63.2270467 95.126,63.2270467 C86.439,63.2270467 78.959,58.8390467 72.686,50.0630467 L72.686,50.0640467 Z M24.128,37.8510467 C36.222,39.7850467 44.368,45.2340467 48.566,54.1970467 C52.139,61.6940467 52.473,71.0160467 49.567,82.1610467 C40.671,82.4280467 33.177,78.6010467 27.088,70.6810467 C20.998,62.7600467 20.012,51.8170467 24.128,37.8510467 Z M54.446,83.0940467 C60.196,73.0950467 67.985,67.7200467 77.814,66.9690467 C87.644,66.2170467 96.302,69.4920467 103.791,76.7940467 C98.436,87.2170467 90.212,92.8820467 79.118,93.7860467 C68.025,94.6910467 59.8,91.1260467 54.446,83.0940467 L54.446,83.0940467 Z M3.182,86.4190467 C19.034,86.7090467 29.895,92.5980467 35.764,104.088047 C40.366,113.573047 40.638,122.291047 36.58,130.242047 C22.992,129.384047 13.487,124.537047 8.067,115.702047 C2.647,106.865047 1.018,97.1040467 3.182,86.4190467 L3.182,86.4190467 Z M45.546,126.557047 C49.105,114.917047 56.292,108.190047 67.11,106.378047 C77.928,104.566047 87.267,106.254047 95.126,111.443047 C91.959,122.055047 85.388,129.455047 75.412,133.643047 C65.437,137.831047 55.482,137.101047 45.547,131.451047 L45.547,126.557047 L45.546,126.557047 Z M0,155.270047 C12.315,150.810047 23.908,152.036047 34.782,158.949047 C43.729,164.978047 48.497,172.824047 49.085,182.488047 C41.435,187.809047 31.717,188.266047 19.933,183.858047 C8.148,179.450047 1.504,169.920047 0,155.270047 Z M54.446,179.738047 C53.639,167.501047 57.729,158.471047 66.717,152.646047 C75.705,146.822047 85.175,145.068047 95.126,147.383047 C96.692,159.783047 92.349,169.647047 82.096,176.973047 C71.843,184.297047 62.626,185.219047 54.446,179.738047 L54.446,179.738047 Z M22.737,224.122047 C32.764,214.939047 45.631,211.878047 61.338,214.939047 C73.49,217.654047 80.41,222.999047 82.096,230.973047 C73.543,240.498047 62.803,244.667047 49.877,243.480047 C36.951,242.294047 27.904,235.840047 22.737,224.122047 Z M111.424,176.854047 C97.711,180.436047 88.458,187.239047 83.664,197.264047 C78.871,207.289047 79.668,217.780047 86.056,228.734047 C96.108,226.781047 104.243,220.890047 110.462,211.061047 C116.68,201.231047 117.001,189.830047 111.424,176.855047 L111.424,176.854047 Z M65.541,269.141047 C72.198,257.429047 83.523,251.573047 99.515,251.573047 C111.324,251.589047 119.755,255.805047 124.811,264.221047 C116.76,275.909047 107.376,281.753047 96.658,281.753047 C83.735,281.649047 73.363,277.445047 65.541,269.141047 L65.541,269.141047 Z M141.836,204.339047 C129.318,208.931047 121.47,219.297047 118.293,235.439047 C116.655,243.424047 120.579,251.514047 130.065,259.709047 C139.638,255.333047 146.167,247.243047 149.651,235.439047 C153.135,223.635047 150.531,213.269047 141.837,204.339047 L141.836,204.339047 Z" id="形状"></path>
            <path d="M75.633,48.3680467 L71.461,41.1110467 L65.397,43.2650467 C51.701,61.8190467 43.047,81.7170467 39.432,102.960047 C34.012,134.825047 39.157,159.643047 41.402,166.635047 C43.646,173.628047 48.136,202.005047 83.034,237.849047 C117.931,273.693047 129.051,265.776047 132.254,256.878047 C132.782,252.446047 129.32,260.522047 89.203,225.492047 C67.565,204.493047 56.308,172.864047 56.308,169.750047 C54.446,166.635047 48.722,142.282047 50.608,124.594047 C52.492,106.907047 54.108,97.2450467 60.511,78.7660467 C64.779,66.4460467 70.575,56.7900467 77.896,49.7980467 L75.633,48.3680467 Z" id="路径"></path>
        </g>
    </g>
</svg>