<?xml version="1.0" encoding="UTF-8"?>
<svg width="152px" height="282px" viewBox="0 0 152 282" version="1.1" xmlns="http://www.w3.org/2000/svg" xmlns:xlink="http://www.w3.org/1999/xlink">
    <title>grass_right</title>
    <defs>
        <path d="M93.036128,4.06104668 C98.731128,13.9680467 100.318128,22.6900467 97.796128,30.2260467 C95.274128,37.7620467 90.005128,43.1930467 81.988128,46.5190467 C76.524128,41.2790467 74.518128,33.5410467 75.971128,23.3020467 C77.170128,14.8490467 82.858128,8.43404668 93.036128,4.06204668 L93.036128,4.06104668 Z M62.042128,29.3200467 C63.300128,19.3840467 61.542128,11.9930467 56.766128,7.14704668 C51.990128,2.30204668 46.411128,-0.0799533233 40.029128,0.00204667669 C38.822128,8.02204668 40.221128,15.0620467 44.226128,21.1230467 C47.530128,26.0380467 53.468128,28.7700467 62.042128,29.3200467 Z M78.460128,50.0640467 C71.474128,41.9370467 62.780128,38.5090467 52.380128,39.7790467 C43.867128,40.9310467 37.600128,45.3680467 33.580128,53.0910467 C39.854128,59.8480467 47.334128,63.2270467 56.020128,63.2270467 C64.707128,63.2270467 72.187128,58.8390467 78.460128,50.0630467 L78.460128,50.0640467 Z M127.018128,37.8510467 C114.924128,39.7850467 106.778128,45.2340467 102.581128,54.1970467 C99.007128,61.6940467 98.673128,71.0160467 101.579128,82.1610467 C110.475128,82.4280467 117.969128,78.6010467 124.059128,70.6810467 C130.148128,62.7600467 131.135128,51.8170467 127.019128,37.8510467 L127.018128,37.8510467 Z M96.700128,83.0940467 C90.951128,73.0950467 83.162128,67.7200467 73.332128,66.9690467 C63.502128,66.2170467 54.844128,69.4920467 47.356128,76.7940467 C52.710128,87.2170467 60.934128,92.8820467 72.028128,93.7860467 C83.122128,94.6910467 91.346128,91.1260467 96.700128,83.0940467 L96.700128,83.0940467 Z M147.965128,86.4190467 C132.112128,86.7090467 121.252128,92.5980467 115.383128,104.088047 C110.780128,113.573047 110.508128,122.291047 114.566128,130.242047 C128.155128,129.384047 137.659128,124.537047 143.079128,115.702047 C148.499128,106.865047 150.128128,97.1040467 147.965128,86.4190467 L147.965128,86.4190467 Z M105.599128,126.557047 C102.042128,114.917047 94.854128,108.190047 84.036128,106.378047 C73.218128,104.566047 63.880128,106.254047 56.020128,111.443047 C59.187128,122.055047 65.758128,129.455047 75.734128,133.643047 C85.710128,137.831047 95.664128,137.101047 105.599128,131.451047 L105.599128,126.557047 L105.599128,126.557047 Z M151.146128,155.270047 C138.832128,150.810047 127.238128,152.036047 116.365128,158.949047 C107.418128,164.978047 102.650128,172.824047 102.061128,182.488047 C109.711128,187.809047 119.429128,188.266047 131.214128,183.858047 C142.998128,179.450047 149.642128,169.920047 151.146128,155.270047 L151.146128,155.270047 Z M96.700128,179.738047 C97.508128,167.501047 93.417128,158.471047 84.430128,152.646047 C75.441128,146.822047 65.972128,145.068047 56.020128,147.383047 C54.454128,159.783047 58.798128,169.647047 69.050128,176.973047 C79.303128,184.297047 88.520128,185.219047 96.700128,179.738047 L96.700128,179.738047 Z M128.409128,224.122047 C118.382128,214.939047 105.515128,211.878047 89.809128,214.939047 C77.656128,217.654047 70.737128,222.999047 69.050128,230.973047 C77.603128,240.498047 88.343128,244.667047 101.270128,243.480047 C114.195128,242.294047 123.242128,235.840047 128.410128,224.122047 L128.409128,224.122047 Z M39.723128,176.854047 C53.435128,180.436047 62.688128,187.239047 67.482128,197.264047 C72.276128,207.289047 71.479128,217.780047 65.090128,228.734047 C55.038128,226.781047 46.903128,220.890047 40.685128,211.061047 C34.466128,201.231047 34.145128,189.830047 39.723128,176.855047 L39.723128,176.854047 Z M85.606128,269.141047 C78.949128,257.429047 67.624128,251.573047 51.631128,251.573047 C39.823128,251.589047 31.391128,255.805047 26.336128,264.221047 C34.386128,275.909047 43.771128,281.753047 54.488128,281.753047 C67.411128,281.649047 77.784128,277.445047 85.605128,269.141047 L85.606128,269.141047 Z M9.30912803,204.339047 C21.829128,208.931047 29.676128,219.297047 32.853128,235.439047 C34.492128,243.424047 30.568128,251.514047 21.081128,259.709047 C11.508128,255.333047 4.98012803,247.243047 1.49512803,235.439047 C-1.98887197,223.635047 0.616128031,213.269047 9.30912803,204.339047 L9.30912803,204.339047 Z" id="path-1"></path>
    </defs>
    <g id="页面-1" stroke="none" stroke-width="1" fill="none" fill-rule="evenodd">
        <g id="grass_right" transform="translate(0.000000, 0.000000)" fill="#3BC117">
            <g id="形状">
                <use xlink:href="#path-1"></use>
                <use xlink:href="#path-1"></use>
            </g>
            <path d="M75.514128,48.3680467 L79.684128,41.1110467 L85.749128,43.2650467 C99.445128,61.8190467 108.100128,81.7170467 111.714128,102.960047 C117.135128,134.825047 111.989128,159.643047 109.744128,166.635047 C107.500128,173.628047 103.011128,202.005047 68.113128,237.849047 C33.215128,273.693047 22.096128,265.776047 18.891128,256.878047 C18.364128,252.446047 21.826128,260.522047 61.944128,225.492047 C83.582128,204.493047 94.839128,172.864047 94.839128,169.750047 C96.700128,166.635047 102.424128,142.282047 100.539128,124.594047 C98.654128,106.907047 97.039128,97.2450467 90.636128,78.7660467 C86.366128,66.4460467 80.572128,56.7900467 73.250128,49.7980467 L75.514128,48.3680467 Z" id="路径"></path>
        </g>
    </g>
</svg>