<svg xmlns="http://www.w3.org/2000/svg" xmlns:xlink="http://www.w3.org/1999/xlink" viewBox="0 0 31 37"><defs><ellipse id="b" cx="13.08" cy="13" rx="12.96" ry="13"/><circle id="a" cx="15.111" cy="15" r="15"/><path id="d" d="M7.052 11.581l-3.509.813a.5.5 0 01-.61-.444L2.62 8.363.764 5.277a.5.5 0 01.234-.718l3.315-1.405L6.673.435a.5.5 0 01.756 0l2.36 2.72 3.316 1.404a.5.5 0 01.234.718l-1.857 3.086-.311 3.587a.5.5 0 01-.611.444l-3.508-.813z"/></defs><g fill="none" fill-rule="evenodd"><use fill="#D5A290" transform="translate(0 7)" xlink:href="#a"/><path fill="#FFAE92" fill-rule="nonzero" d="M22.16 4.226v7.946H8V4.173c0-.559.384-1.012.858-1.012.183 0 .361.069.51.197l1.969 1.71c.382.331.919.235 1.2-.215.027-.045.052-.09.073-.14L14.338.725c.216-.498.733-.695 1.155-.44a.95.95 0 01.364.419l1.85 4.027c.225.492.746.674 1.163.408a.848.848 0 00.114-.087l1.795-1.627c.376-.34.914-.257 1.203.186.115.177.178.393.178.616z"/><g transform="translate(2 9)"><mask id="c" fill="#fff"><use xlink:href="#b"/></mask><use fill="#F2CAB9" xlink:href="#b"/><path fill="#FCD8C9" d="M-3.12 29.25l32.851-32.5H-4.32z" mask="url(#c)"/></g><g transform="translate(8 15)"><mask id="e" fill="#fff"><use xlink:href="#d"/></mask><use fill="#FFAE92" xlink:href="#d"/><path fill="#FFC3AE" d="M-10.256 24.231l35.097-34.616h-36.379z" mask="url(#e)"/></g></g></svg>